{"title":"Highway 2014 [1CD Dvdscr Rip] [Movies2Fun]","uid":9923379,"size":730056988,"categoryP":"video","categoryS":"movies","magnet":"?xt=urn:btih:ac6696c33f284c4f7ef53915c52703dd594da483&amp;dn=Highway+2014+%5B1CD+Dvdscr+Rip%5D+%5BMovies2Fun%5D&amp;tr=udp%3A%2F%2Ftracker.openbittorrent.com%3A80&amp;tr=udp%3A%2F%2Fopen.demonii.com%3A1337&amp;tr=udp%3A%2F%2Ftracker.coppersurfer.tk%3A6969&amp;tr=udp%3A%2F%2Fexodus.desync.com%3A6969","seeders":1,"leechers":0,"uploader":"taztoor","files":4,"time":1397025744,"description":"Highway 2014 Download\n\nGeneral\nFormat : AVI\nFormat/Info : Audio Video Interleave\nFile size : 697 MiB\nDuration : 2h 13mn\nOverall bit rate : 733 Kbps\n\nVideo\nID : 0\nFormat : MPEG-4 Visual\nFormat profile : Advanced Simple@L5\nFormat settings, BVOP : 2\nFormat settings, QPel : No\nFormat settings, GMC : No warppoints\nFormat settings, Matrix : Default (H.263)\nCodec ID : XVID\nCodec ID/Hint : XviD\nDuration : 2h 13mn\nBit rate : 647 Kbps\nWidth : 640 pixels\nHeight : 272 pixels\nDisplay aspect ratio : 2.35:1\nFrame rate : 23.976 fps\nColor space : YUV\nChroma subsampling : 4:2:0\nBit depth : 8 bits\nScan type : Progressive\nCompression mode : Lossy\nBits/(Pixel*Frame) : 0.155\nStream size : 616 MiB (88%)\nWriting library : XviD 1.2.1 (UTC 2008-12-04)\n\nAudio\nID : 1\nFormat : MPEG Audio\nFormat version : Version 1\nFormat profile : Layer 3\nMode : Joint stereo\nMode extension : MS Stereo\nCodec ID : 55\nCodec ID/Hint : MP3\nDuration : 2h 13mn\nBit rate mode : Constant\nBit rate : 80.0 Kbps\nChannel count : 2 channels\nSampling rate : 32.0 KHz\nCompression mode : Lossy\nStream size : 76.1 MiB (11%)\nAlignment : Aligned on interleaves\nInterleave, duration : 167 ms (4.00 video frames)\nInterleave, preload duration : 216 ms\nTitle : VTS_01_1 T80 2_0ch 192Kbps DELAY 0ms\nWriting library : LAME3.99r\nEncoding settings : -m j -V 4 -q 2 -lowpass 13.5 -b 80\n","torrent":{"xt":"urn:btih:ac6696c33f284c4f7ef53915c52703dd594da483","amp;dn":"Highway+2014+%5B1CD+Dvdscr+Rip%5D+%5BMovies2Fun%5D","amp;tr":["udp%3A%2F%2Ftracker.openbittorrent.com%3A80","udp%3A%2F%2Fopen.demonii.com%3A1337","udp%3A%2F%2Ftracker.coppersurfer.tk%3A6969","udp%3A%2F%2Fexodus.desync.com%3A6969"],"infoHash":"ac6696c33f284c4f7ef53915c52703dd594da483","infoHashBuffer":{"type":"Buffer","data":[172,102,150,195,63,40,76,79,126,245,57,21,197,39,3,221,89,77,164,131]},"announce":[],"urlList":[]}}